<?xml version="1.0" standalone="no"?><!DOCTYPE svg PUBLIC "-//W3C//DTD SVG 1.1//EN" "http://www.w3.org/Graphics/SVG/1.1/DTD/svg11.dtd"><svg t="1589531134049" class="icon" viewBox="0 0 1024 1024" version="1.1" xmlns="http://www.w3.org/2000/svg" p-id="3303" xmlns:xlink="http://www.w3.org/1999/xlink" width="64" height="64"><defs><style type="text/css"></style></defs><path d="M868.266667 635.733333V386.133333c34.133333-6.4 61.866667-38.4 61.866666-74.666666 0-42.666667-34.133333-74.666667-74.666666-74.666667-21.333333 0-42.666667 10.666667-55.466667 25.6l-213.333333-119.466667c2.133333-6.4 4.266667-12.8 4.266666-21.333333 0-42.666667-34.133333-74.666667-74.666666-74.666667s-74.666667 34.133333-74.666667 74.666667c0 6.4 2.133333 12.8 2.133333 19.2l-213.333333 121.6C213.333333 245.333333 194.133333 234.666667 172.8 234.666667c-42.666667 0-74.666667 34.133333-74.666667 74.666666 0 36.266667 25.6 66.133333 59.733334 74.666667v251.733333c-34.133333 8.533333-59.733333 38.4-59.733334 74.666667 0 42.666667 34.133333 74.666667 74.666667 74.666667 21.333333 0 42.666667-10.666667 55.466667-25.6l215.466666 119.466666c-4.266667 8.533333-6.4 19.2-6.4 29.866667 0 42.666667 34.133333 74.666667 74.666667 74.666667s74.666667-34.133333 74.666667-74.666667c0-10.666667-2.133333-21.333333-6.4-32l215.466666-117.333333c14.933333 14.933333 34.133333 25.6 57.6 25.6 42.666667 0 74.666667-34.133333 74.666667-74.666667 2.133333-38.4-23.466667-68.266667-59.733333-74.666667z m-309.333334 213.333334c-8.533333-6.4-17.066667-10.666667-25.6-12.8v-189.866667h-36.266666v189.866667c-10.666667 2.133333-21.333333 8.533333-29.866667 14.933333l-219.733333-121.6c2.133333-6.4 2.133333-12.8 2.133333-19.2 0-34.133333-23.466667-64-55.466667-72.533333V384c12.8-4.266667 23.466667-8.533333 32-19.2l160 98.133333 19.2-29.866666-160-98.133334c2.133333-8.533333 4.266667-14.933333 4.266667-23.466666 0-6.4-2.133333-12.8-2.133333-19.2l213.333333-121.6c12.8 14.933333 34.133333 23.466667 55.466667 23.466666s40.533333-8.533333 53.333333-23.466666l213.333333 121.6c-2.133333 6.4-2.133333 12.8-2.133333 19.2 0 8.533333 2.133333 14.933333 4.266667 23.466666l-160 98.133334 19.2 29.866666 157.866666-96c8.533333 8.533333 19.2 14.933333 32 19.2V640c-32 8.533333-53.333333 38.4-53.333333 72.533333 0 6.4 0 12.8 2.133333 17.066667l-224 119.466667z" fill="#00C1DE" p-id="3304"></path><path d="M443.243602 583.475112a98.133333 98.133333 0 1 0 138.779069-138.783913 98.133333 98.133333 0 1 0-138.779069 138.783913Z" fill="#00C1DE" p-id="3305"></path></svg>